<?xml version="1.0" encoding="UTF-8" standalone="no"?>
<svg
   xmlns:dc="http://purl.org/dc/elements/1.1/"
   xmlns:cc="http://creativecommons.org/ns#"
   xmlns:rdf="http://www.w3.org/1999/02/22-rdf-syntax-ns#"
   xmlns:svg="http://www.w3.org/2000/svg"
   xmlns="http://www.w3.org/2000/svg"
   xmlns:sodipodi="http://sodipodi.sourceforge.net/DTD/sodipodi-0.dtd"
   xmlns:inkscape="http://www.inkscape.org/namespaces/inkscape"
   enable-background="new 0 0 32 32"
   height="128"
   id="svg2"
   version="1.1"
   viewBox="0 0 128 128"
   width="128"
   xml:space="preserve"
   inkscape:version="0.91 r13725"
   sodipodi:docname="attachment.svg"><metadata
     id="metadata4217"><rdf:RDF><cc:Work
         rdf:about=""><dc:format>image/svg+xml</dc:format><dc:type
           rdf:resource="http://purl.org/dc/dcmitype/StillImage" /><dc:title></dc:title></cc:Work></rdf:RDF></metadata><defs
     id="defs4215" /><sodipodi:namedview
     pagecolor="#ffffff"
     bordercolor="#666666"
     borderopacity="1"
     objecttolerance="10"
     gridtolerance="10"
     guidetolerance="10"
     inkscape:pageopacity="0"
     inkscape:pageshadow="2"
     inkscape:window-width="3840"
     inkscape:window-height="2124"
     id="namedview4213"
     showgrid="false"
     inkscape:zoom="7.375"
     inkscape:cx="16"
     inkscape:cy="16"
     inkscape:window-x="0"
     inkscape:window-y="36"
     inkscape:window-maximized="1"
     inkscape:current-layer="svg2" /><g
     id="background"
     transform="translate(0,96)"><rect
       height="32"
       width="32"
       id="rect4208"
       x="0"
       y="0"
       style="fill:none" /></g><g
     id="mail"
     transform="matrix(4.0040972,0,0,4.0040972,0.00147764,35.918055)"><path
       d="M 7,20 C 6.917,19.996 5.294,20.008 3.552,19.145 l 0,0 C 1.805,18.316 -0.034,16.354 0,13 l 0,0 C -0.035,9.647 1.804,7.686 3.551,6.856 l 0,0 C 5.294,5.993 6.917,6.005 7,6.001 l 0,0 c 0,-0.002 20,-0.002 22,0 l 0,0 c 1.355,-0.035 2.314,0.806 2.645,1.551 l 0,0 c 0.362,0.742 0.35,1.364 0.356,1.448 l 0,0 -0.002,4 c -0.005,0.084 0.008,0.706 -0.354,1.446 l 0,0 c -0.33,0.747 -1.289,1.588 -2.645,1.553 l 0,0 c -2,0 -18,0 -18,0 l 0,0 C 9.646,16.034 8.685,15.192 8.355,14.446 l 0,0 C 7.992,13.707 8.004,13.084 8,13 l 0,0 C 7.965,11.647 8.805,10.686 9.553,10.355 l 0,0 c 0.739,-0.362 1.363,-0.35 1.446,-0.354 l 0,0 16,0 0,2 -15.999,0 c 0,0.006 -0.031,-0.002 -0.148,0.016 l 0,0 c -0.117,0.019 -0.274,0.062 -0.404,0.128 l 0,0 c -0.253,0.169 -0.414,0.208 -0.449,0.854 l 0,0 c 0.008,0 -0.002,0.031 0.019,0.148 l 0,0 c 0.019,0.117 0.062,0.273 0.127,0.405 l 0,0 c 0.169,0.252 0.208,0.412 0.855,0.447 l 0,0 c 0.019,-0.002 16,-0.002 18,0 l 0,0 c 0.5,-0.017 0.609,-0.136 0.743,-0.274 l 0,0 c 0.126,-0.144 0.212,-0.399 0.239,-0.578 l 0,0 C 30.002,13.032 30,13 29.998,13 l 0,0 L 30,9 C 29.993,9 30.002,8.969 29.981,8.852 l 0,0 C 29.962,8.734 29.919,8.578 29.855,8.448 l 0,0 C 29.685,8.195 29.646,8.035 28.999,8 l 0,0 c -2,0 -22,0 -22,0 l 0,0 c 0,0.008 -0.282,0 -0.772,0.082 l 0,0 C 5.735,8.163 5.078,8.329 4.447,8.644 l 0,0 C 3.193,9.316 2.034,10.354 1.999,13 l 0,0 c 0.017,2 0.698,3.046 1.541,3.767 l 0,0 c 0.847,0.713 1.946,1.033 2.688,1.152 l 0,0 C 6.717,18.004 7,18.002 7,18.002 l 0,0 22,0 0,1.998 -22,0 0,0 z"
       id="path4211"
       inkscape:connector-curvature="0" /></g></svg>