<?xml version="1.0" encoding="UTF-8" standalone="no"?>
<!-- Generated by IcoMoon.io -->

<svg
   xmlns:dc="http://purl.org/dc/elements/1.1/"
   xmlns:cc="http://creativecommons.org/ns#"
   xmlns:rdf="http://www.w3.org/1999/02/22-rdf-syntax-ns#"
   xmlns:svg="http://www.w3.org/2000/svg"
   xmlns="http://www.w3.org/2000/svg"
   xmlns:sodipodi="http://sodipodi.sourceforge.net/DTD/sodipodi-0.dtd"
   xmlns:inkscape="http://www.inkscape.org/namespaces/inkscape"
   version="1.1"
   width="32"
   height="32"
   viewBox="0 0 32.000002 32.000002"
   id="svg2"
   inkscape:version="0.91 r13725"
   sodipodi:docname="copy.svg">
  <metadata
     id="metadata10">
    <rdf:RDF>
      <cc:Work
         rdf:about="">
        <dc:format>image/svg+xml</dc:format>
        <dc:type
           rdf:resource="http://purl.org/dc/dcmitype/StillImage" />
        <dc:title></dc:title>
      </cc:Work>
    </rdf:RDF>
  </metadata>
  <defs
     id="defs8" />
  <sodipodi:namedview
     pagecolor="#ffffff"
     bordercolor="#666666"
     borderopacity="1"
     objecttolerance="10"
     gridtolerance="10"
     guidetolerance="10"
     inkscape:pageopacity="0"
     inkscape:pageshadow="2"
     inkscape:window-width="3840"
     inkscape:window-height="2127"
     id="namedview6"
     showgrid="false"
     units="px"
     inkscape:zoom="14.75"
     inkscape:cx="-25.152542"
     inkscape:cy="8"
     inkscape:window-x="0"
     inkscape:window-y="33"
     inkscape:window-maximized="1"
     inkscape:current-layer="svg2" />
  <path
     d="m 20.042375,8.1016948 0,-7.96610242 -14.0296626,0 L 0,6.1101692 0,24.0339 l 12.025425,0 0,7.966102 20.042374,0 0,-23.8983072 -12.025424,0 z M 6.0127124,2.9516096 l 0,3.1585596 -3.1787206,0 3.1787206,-3.1585596 z m -4.0084749,19.0907644 0,-13.9406792 6.0127124,0 0,-5.9745768 10.0211871,0 0,5.9745768 -6.012712,5.9745772 0,7.966102 -10.0211875,0 z m 16.0338995,-11.124662 0,3.15856 -3.17872,0 3.17872,-3.15856 z m 12.025425,19.090764 -16.0339,0 0,-13.940679 6.012713,0 0,-5.974577 10.021187,0 0,19.915256 z"
     id="path4"
     inkscape:connector-curvature="0"
     style="fill:#000000" />
</svg>
