<?xml version="1.0" encoding="UTF-8" standalone="no"?>
<!-- Generated by IcoMoon.io -->

<svg
   xmlns:dc="http://purl.org/dc/elements/1.1/"
   xmlns:cc="http://creativecommons.org/ns#"
   xmlns:rdf="http://www.w3.org/1999/02/22-rdf-syntax-ns#"
   xmlns:svg="http://www.w3.org/2000/svg"
   xmlns="http://www.w3.org/2000/svg"
   xmlns:sodipodi="http://sodipodi.sourceforge.net/DTD/sodipodi-0.dtd"
   xmlns:inkscape="http://www.inkscape.org/namespaces/inkscape"
   version="1.1"
   width="32"
   height="32"
   viewBox="0 0 32 32"
   id="svg2"
   inkscape:version="0.91 r13725"
   sodipodi:docname="link.svg">
  <metadata
     id="metadata12">
    <rdf:RDF>
      <cc:Work
         rdf:about="">
        <dc:format>image/svg+xml</dc:format>
        <dc:type
           rdf:resource="http://purl.org/dc/dcmitype/StillImage" />
        <dc:title></dc:title>
      </cc:Work>
    </rdf:RDF>
  </metadata>
  <defs
     id="defs10" />
  <sodipodi:namedview
     pagecolor="#ffffff"
     bordercolor="#666666"
     borderopacity="1"
     objecttolerance="10"
     gridtolerance="10"
     guidetolerance="10"
     inkscape:pageopacity="0"
     inkscape:pageshadow="2"
     inkscape:window-width="3840"
     inkscape:window-height="2127"
     id="namedview8"
     showgrid="false"
     fit-margin-top="0"
     fit-margin-left="0"
     fit-margin-right="0"
     fit-margin-bottom="0"
     inkscape:zoom="45.254834"
     inkscape:cx="10.798287"
     inkscape:cy="19.955655"
     inkscape:window-x="0"
     inkscape:window-y="33"
     inkscape:window-maximized="1"
     inkscape:current-layer="svg2" />
  <path
     d="m 13.681706,19.975969 c -0.425411,0 -0.850824,-0.161576 -1.176019,-0.48677 -3.0392426,-3.039244 -3.0392426,-7.986706 0,-11.0279939 L 18.641441,2.325452 c 1.472581,-1.47258077 3.43193,-2.28454545 5.513996,-2.28454545 2.082066,0 4.041416,0.81196468 5.513997,2.28454545 3.039243,3.0412882 3.039243,7.986705 0,11.027993 l -2.804039,2.80404 c -0.648344,0.648344 -1.701648,0.648344 -2.349994,0 -0.648344,-0.648346 -0.648344,-1.70165 0,-2.349994 l 2.80404,-2.804039 c 1.744598,-1.7445991 1.744598,-4.5834075 0,-6.3280066 -0.844689,-0.8446887 -1.969577,-1.311006 -3.164004,-1.311006 -1.194426,0 -2.319314,0.4663173 -3.164003,1.311006 L 14.85568,10.811198 c -1.744598,1.7446 -1.744598,4.583408 0,6.328007 0.648346,0.648345 0.648346,1.701649 0,2.349994 -0.325194,0.325194 -0.750606,0.48677 -1.176019,0.48677 z"
     id="path4"
     inkscape:connector-curvature="0"
     style="fill:#000000" />
  <path
     d="m 7.793429,31.999999 c -2.0820655,0 -4.041416,-0.811965 -5.5139967,-2.284546 -3.03924306,-3.039243 -3.03924306,-7.986705 0,-11.027993 l 2.8040391,-2.804039 c 0.6483446,-0.648344 1.7016489,-0.648344 2.3499934,0 0.6483446,0.648345 0.6483446,1.701649 0,2.349993 l -2.8040391,2.804039 c -1.7445991,1.7446 -1.7445991,4.583408 0,6.328007 0.8446887,0.844688 1.9675315,1.311006 3.1640033,1.311006 1.196472,0 2.319314,-0.466318 3.164004,-1.311006 l 6.135752,-6.135753 c 1.7446,-1.744599 1.7446,-4.583408 0,-6.328006 -0.648344,-0.648345 -0.648344,-1.701649 0,-2.349994 0.648346,-0.648345 1.70165,-0.648345 2.349994,0 3.039243,3.039243 3.039243,7.986706 0,11.027994 l -6.135753,6.135752 c -1.472581,1.472581 -3.4319314,2.284546 -5.513997,2.284546 z"
     id="path6"
     inkscape:connector-curvature="0"
     style="fill:#000000" />
</svg>
