<?xml version="1.0" encoding="UTF-8" standalone="no"?>
<!-- Generated by IcoMoon.io -->

<svg
   xmlns:dc="http://purl.org/dc/elements/1.1/"
   xmlns:cc="http://creativecommons.org/ns#"
   xmlns:rdf="http://www.w3.org/1999/02/22-rdf-syntax-ns#"
   xmlns:svg="http://www.w3.org/2000/svg"
   xmlns="http://www.w3.org/2000/svg"
   xmlns:sodipodi="http://sodipodi.sourceforge.net/DTD/sodipodi-0.dtd"
   xmlns:inkscape="http://www.inkscape.org/namespaces/inkscape"
   version="1.1"
   width="32"
   height="32"
   viewBox="0 0 32 32"
   id="svg2"
   inkscape:version="0.91 r13725"
   sodipodi:docname="search.svg">
  <metadata
     id="metadata10">
    <rdf:RDF>
      <cc:Work
         rdf:about="">
        <dc:format>image/svg+xml</dc:format>
        <dc:type
           rdf:resource="http://purl.org/dc/dcmitype/StillImage" />
        <dc:title></dc:title>
      </cc:Work>
    </rdf:RDF>
  </metadata>
  <path
     d="M 31.009094,27.23111 23.428826,20.785084 C 22.644799,20.079081 21.806769,19.757079 21.130745,19.78708 22.920809,17.691071 24.000847,14.97306 24.000847,12.001048 24.000847,5.3730216 18.628657,0.001 12.000423,0.001 5.3721895,0.001 0,5.3730216 0,12.001048 c 0,6.628027 5.3721895,12.000049 12.000423,12.000049 2.972105,0 5.690201,-1.080005 7.786275,-2.870012 -0.032,0.676003 0.29201,1.514006 0.998035,2.298009 l 6.446228,7.580031 c 1.104039,1.226005 2.906102,1.330005 4.006141,0.230001 1.100039,-1.100005 0.996035,-2.904012 -0.230008,-4.006016 z M 12.000423,19.99908 c -4.4181555,0 -8.0002819,-3.582014 -8.0002819,-8.000032 0,-4.4180175 3.5821264,-8.0000319 8.0002819,-8.0000319 4.418156,0 8.000283,3.5820144 8.000283,8.0000319 0,4.418018 -3.582127,8.000032 -8.000283,8.000032 z"
     id="path4"
     inkscape:connector-curvature="0"
     />
</svg>
