<?xml version="1.0" encoding="UTF-8" standalone="no"?>
<!-- Generated by IcoMoon.io -->

<svg
   xmlns:dc="http://purl.org/dc/elements/1.1/"
   xmlns:cc="http://creativecommons.org/ns#"
   xmlns:rdf="http://www.w3.org/1999/02/22-rdf-syntax-ns#"
   xmlns:svg="http://www.w3.org/2000/svg"
   xmlns="http://www.w3.org/2000/svg"
   xmlns:sodipodi="http://sodipodi.sourceforge.net/DTD/sodipodi-0.dtd"
   xmlns:inkscape="http://www.inkscape.org/namespaces/inkscape"
   version="1.1"
   width="32"
   height="32"
   viewBox="0 0 32 32"
   id="svg2"
   inkscape:version="0.91 r13725"
   sodipodi:docname="terminal.svg">
  <path
     d="M 0,3 0,31 32,31 32,3 0,3 Z M 30,29 2,29 2,5 30,5 30,29 Z M 28,7 4,7 4,27 28,27 28,7 Z m -14,10 -2,0 0,2 -2,0 0,2 -2,0 0,-2 2,0 0,-2 2,0 0,-2 -2,0 0,-2 -2,0 0,-2 2,0 0,2 2,0 0,2 2,0 0,2 z m 8,4 -6,0 0,-2 6,0 0,2 z"
     id="path4"
     inkscape:connector-curvature="0"
      />
</svg>
